<svg width="24" height="24" xmlns="http://www.w3.org/2000/svg"><g fill="none" fill-rule="evenodd"><path fill="#FF7F00" d="M0 0h24v24z"/><path d="M13.576 10.711c.738-.373 1.27-.913 1.593-1.61.24-.555.406-1.244.49-2.057h2.148v3.56h.871v-3.56h1.718v-.838h-1.718V4.297h1.303V3.46H13.41v.838h1.435v1.768c0 .05-.008.091-.008.14h-1.85v.839h1.792a6.656 6.656 0 0 1-.324 1.468c-.232.581-.68 1.07-1.352 1.46l.473.74Zm4.231-4.505h-2.09c0-.05.008-.091.008-.141V4.297h2.082v1.909Z" fill="#FFF" fill-rule="nonzero"/></g></svg>